# xmcd
#
# Track frame offsets:
#	150
#	16294
#	33163
#	55980
#	77512
#	102619
#	124236
#	141809
#	162004
#	179304
#	196456
#	211353
#	228512
#	246799
#	266784
#
# Disc length: 3954 seconds
#
# Revision: 0
# Processed by: cddbd v1.5PL3 Copyright (c) Steve Scherf et al.
# Submitted via: dBpowerAMP V4.0
#
DISCID=cf0f700f
DTITLE=DJ Skitz - Tripped and Fell
DYEAR=2004
DGENRE=Hip Hop
TTITLE0=Hip Hop vs. Rap (The Breaks Mix)
TTITLE1=B-Boy Document (B-Boy Mix)
TTITLE2=If I Ruled the World (Bonitas Mix)
TTITLE3=Ms. Fat Booty (Ass So Fat Mix)
TTITLE4=I Got Soul (Dorm Room Mix)
TTITLE5=Bombs Over Baghdad (Bob Remix)
TTITLE6=Where Is The Love (Unjustified Remix)
TTITLE7=How High (Very Mix)
TTITLE8=Big L (After Dark Remix)
TTITLE9=Any Man (Summertime Mix)
TTITLE10=Neutronics (Herbie's Mix)
TTITLE11=Pass That Dutch (Pop That Remix)
TTITLE12=Get Down (Prisoner Remix)
TTITLE13=Rumble in the Jungle (Got Me Remix)
TTITLE14=How Many Mic (Spacin' Out Remix)
EXTD=Tripped and fell is a remix album produced by DJ Skitz
EXTT0=
EXTT1=
EXTT2=
EXTT3=
EXTT4=
EXTT5=
EXTT6=
EXTT7=
EXTT8=
EXTT9=
EXTT10=
EXTT11=
EXTT12=
EXTT13=
EXTT14=
PLAYORDER=
